# xmcd CD database file generated by Grip 2.96
# 
# Track frame offsets:
#       150
#       11249
#       29177
#       55841
#       69936
#       81896
#       100344
#       118944
# 
# Disc length: 1701 seconds
# 
# Revision: 0
# Processed by: cddbd v1.4PL0 Copyright (c) Steve Scherf et al.
# Submitted via: Grip 2.96
# 
DISCID=6d06a308
DTITLE=The Lazy Eights - Hub Cap
DYEAR=1900
DGENRE=
TTITLE0=Only Way Out
TTITLE1=What In The World
TTITLE2=Iris
TTITLE3=Funkin' Eight
TTITLE4=Stay Out Of My Heart
TTITLE5=Josie The Acrobat
TTITLE6=Angel From Montgomery
TTITLE7=High Strung
EXTD=
EXTT0=
EXTT1=
EXTT2=
EXTT3=
EXTT4=
EXTT5=
EXTT6=
EXTT7=
PLAYORDER=
